<svg width="31" height="26" viewBox="0 0 31 26" fill="none" xmlns="http://www.w3.org/2000/svg">
<path d="M27.6895 1.79517H2.68945C2.02641 1.79517 1.39053 2.05856 0.921686 2.5274C0.452845 2.99624 0.189453 3.63212 0.189453 4.29517L0.189453 21.7952C0.189453 22.4582 0.452845 23.0941 0.921686 23.5629C1.39053 24.0318 2.02641 24.2952 2.68945 24.2952H27.6895C28.3525 24.2952 28.9884 24.0318 29.4572 23.5629C29.9261 23.0941 30.1895 22.4582 30.1895 21.7952V4.29517C30.1895 3.63212 29.9261 2.99624 29.4572 2.5274C28.9884 2.05856 28.3525 1.79517 27.6895 1.79517ZM15.1895 10.3952L5.27695 3.04517H25.102L15.1895 10.3952ZM5.18945 9.55767L14.8145 16.6702C14.9215 16.7484 15.0506 16.7905 15.1832 16.7905C15.3158 16.7905 15.4449 16.7484 15.552 16.6702L25.1895 9.55767V23.0452H5.18945V9.55767Z" fill="black"/>
</svg>
