<svg width="31" height="26" viewBox="0 0 31 26" fill="none" xmlns="http://www.w3.org/2000/svg">
<path fill-rule="evenodd" clip-rule="evenodd" d="M15.1608 0.00158691C7.92833 0.00158691 2.06445 5.86437 2.06445 13.0979C2.06445 18.8843 5.81655 23.7932 11.0201 25.5252C11.675 25.6464 11.9151 25.2415 11.9151 24.8955C11.9151 24.5834 11.9031 23.552 11.8976 22.4574C8.25464 23.2497 7.48524 20.912 7.48524 20.912C6.88935 19.3983 6.03154 18.9956 6.03154 18.9956C4.84305 18.1825 6.12104 18.2 6.12104 18.2C7.43612 18.2928 8.12805 19.55 8.12805 19.55C9.2958 21.5516 11.1915 20.9731 11.9391 20.6381C12.0569 19.7912 12.3964 19.2139 12.7707 18.8865C9.86222 18.5558 6.80423 17.4328 6.80423 12.4147C6.80423 10.985 7.31607 9.81618 8.15424 8.89944C8.01782 8.56876 7.56927 7.2373 8.28084 5.43328C8.28084 5.43328 9.38093 5.08186 11.8834 6.77565C12.9278 6.48535 14.0476 6.3402 15.1608 6.33475C16.274 6.3402 17.3948 6.48535 18.4414 6.77565C20.9406 5.08077 22.0396 5.43328 22.0396 5.43328C22.7523 7.2373 22.3037 8.56876 22.1684 8.89944C23.0076 9.81618 23.5162 10.985 23.5162 12.4147C23.5162 17.4448 20.4528 18.5525 17.5367 18.8766C18.0059 19.2826 18.425 20.0804 18.425 21.3016C18.425 23.0544 18.4097 24.4644 18.4097 24.8955C18.4097 25.2436 18.6455 25.6529 19.309 25.5241C24.5104 23.7899 28.2582 18.8832 28.2582 13.099C28.2571 5.86546 22.3932 0.00158691 15.1608 0.00158691Z" fill="black"/>
<path d="M7.02512 18.8057C6.99675 18.8712 6.89416 18.8909 6.8003 18.8461C6.70536 18.8035 6.65188 18.7141 6.68244 18.6497C6.71081 18.5831 6.8134 18.5645 6.90835 18.6093C7.0033 18.6508 7.05787 18.7402 7.02512 18.8057Z" fill="black"/>
<path d="M7.55528 19.3972C7.49307 19.4551 7.37084 19.4278 7.28789 19.3372C7.20168 19.2455 7.1864 19.1233 7.2497 19.0654C7.31409 19.0076 7.43195 19.0349 7.51817 19.1266C7.60439 19.2171 7.62076 19.3383 7.55528 19.3972Z" fill="black"/>
<path d="M8.07153 20.1513C7.99077 20.207 7.85981 20.1546 7.77905 20.0389C7.69829 19.9221 7.69829 19.7824 7.78123 19.7268C7.86199 19.6711 7.99187 19.7213 8.07372 19.837C8.15339 19.9549 8.15339 20.0946 8.07153 20.1513Z" fill="black"/>
<path d="M8.77888 20.8804C8.70685 20.96 8.55406 20.9382 8.44274 20.8302C8.32815 20.7243 8.2965 20.5748 8.36853 20.4951C8.44165 20.4155 8.59553 20.4384 8.70794 20.5453C8.82144 20.6512 8.85527 20.8018 8.77888 20.8804Z" fill="black"/>
<path d="M9.75506 21.3028C9.72341 21.4053 9.57608 21.4523 9.42765 21.4086C9.27923 21.3639 9.1821 21.2438 9.21265 21.1401C9.24321 21.0365 9.39164 20.9884 9.54115 21.0354C9.68849 21.079 9.78562 21.1991 9.75506 21.3028Z" fill="black"/>
<path d="M10.8268 21.3813C10.8301 21.4894 10.7046 21.5789 10.5485 21.581C10.3925 21.5843 10.2648 21.497 10.2637 21.3911C10.2637 21.282 10.387 21.1936 10.5431 21.1903C10.6991 21.1871 10.8268 21.2744 10.8268 21.3813Z" fill="black"/>
<path d="M11.8243 21.2122C11.8428 21.3169 11.7348 21.4261 11.5798 21.4544C11.4281 21.4828 11.2873 21.4173 11.2677 21.3126C11.2491 21.2045 11.3593 21.0965 11.511 21.0681C11.6649 21.0408 11.8046 21.1041 11.8243 21.2122Z" fill="black"/>
</svg>
