<svg width="31" height="31" viewBox="0 0 31 31" fill="none" xmlns="http://www.w3.org/2000/svg">
<path d="M15.1895 3.24767C19.1945 3.24767 19.6695 3.26267 21.2507 3.33517C22.8857 3.41017 24.5695 3.78267 25.7607 4.97392C26.9632 6.17642 27.3245 7.84392 27.3995 9.48392C27.472 11.0652 27.487 11.5402 27.487 15.5452C27.487 19.5502 27.472 20.0252 27.3995 21.6064C27.3257 23.2327 26.9445 24.9327 25.7607 26.1164C24.5582 27.3189 22.892 27.6802 21.2507 27.7552C19.6695 27.8277 19.1945 27.8427 15.1895 27.8427C11.1845 27.8427 10.7095 27.8277 9.1282 27.7552C7.51445 27.6814 5.79195 27.2914 4.6182 26.1164C3.42195 24.9202 3.05445 23.2364 2.97945 21.6064C2.90695 20.0252 2.89195 19.5502 2.89195 15.5452C2.89195 11.5402 2.90695 11.0652 2.97945 9.48392C3.0532 7.86392 3.4382 6.15392 4.6182 4.97392C5.8182 3.77392 7.49195 3.41017 9.1282 3.33517C10.7095 3.26267 11.1845 3.24767 15.1895 3.24767ZM15.1895 0.545166C11.1157 0.545166 10.6045 0.562666 9.00445 0.635166C6.6857 0.741416 4.3832 1.38642 2.70695 3.06267C1.02445 4.74517 0.385703 7.04267 0.279453 9.36017C0.206953 10.9602 0.189453 11.4714 0.189453 15.5452C0.189453 19.6189 0.206953 20.1302 0.279453 21.7302C0.385703 24.0464 1.0332 26.3552 2.70695 28.0277C4.3882 29.7089 6.68945 30.3489 9.00445 30.4552C10.6045 30.5277 11.1157 30.5452 15.1895 30.5452C19.2632 30.5452 19.7745 30.5277 21.3745 30.4552C23.692 30.3489 25.997 29.7027 27.672 28.0277C29.3557 26.3439 29.9932 24.0477 30.0995 21.7302C30.172 20.1302 30.1895 19.6189 30.1895 15.5452C30.1895 11.4714 30.172 10.9602 30.0995 9.36017C29.9932 7.04142 29.347 4.73767 27.672 3.06267C25.9932 1.38392 23.6857 0.740166 21.3745 0.635166C19.7745 0.562666 19.2632 0.545166 15.1895 0.545166Z" fill="black"/>
<path d="M15.1898 7.84265C10.9361 7.84265 7.4873 11.2914 7.4873 15.5452C7.4873 19.7989 10.9361 23.2477 15.1898 23.2477C19.4436 23.2477 22.8923 19.7989 22.8923 15.5452C22.8923 11.2914 19.4436 7.84265 15.1898 7.84265ZM15.1898 20.5452C12.4286 20.5452 10.1898 18.3064 10.1898 15.5452C10.1898 12.7839 12.4286 10.5452 15.1898 10.5452C17.9511 10.5452 20.1898 12.7839 20.1898 15.5452C20.1898 18.3064 17.9511 20.5452 15.1898 20.5452Z" fill="black"/>
<path d="M23.1965 9.33767C24.1906 9.33767 24.9965 8.53178 24.9965 7.53767C24.9965 6.54356 24.1906 5.73767 23.1965 5.73767C22.2024 5.73767 21.3965 6.54356 21.3965 7.53767C21.3965 8.53178 22.2024 9.33767 23.1965 9.33767Z" fill="black"/>
</svg>
