<svg width="31" height="26" viewBox="0 0 31 26" fill="none" xmlns="http://www.w3.org/2000/svg">
<path d="M28.9416 25.1933H29.2254L28.6816 24.3561C29.0141 24.3561 29.1904 24.1411 29.1929 23.8778C29.1929 23.8676 29.1929 23.8561 29.1916 23.846C29.1916 23.4872 28.9791 23.3154 28.5429 23.3154H27.8379V25.1933H28.1029V24.3752H28.4291L28.9416 25.1933ZM28.4104 24.1627H28.1029V23.5279H28.4929C28.6941 23.5279 28.9241 23.561 28.9241 23.8294C28.9241 24.1373 28.6929 24.1627 28.4104 24.1627Z" fill="black"/>
<path d="M21.8031 21.9987H18.0444V16.0076C18.0444 14.5789 18.0194 12.7405 16.0894 12.7405C14.1319 12.7405 13.8319 14.2965 13.8319 15.9046V21.9987H10.0744V9.67819H13.6832V11.3614H13.7332C14.4694 10.0815 15.8369 9.31687 17.2931 9.37158C21.1031 9.37158 21.8044 11.9224 21.8044 15.2392L21.8031 21.9987ZM5.83319 7.99373C4.62819 7.99373 3.65194 7.0001 3.65194 5.77365C3.65194 4.5472 4.62819 3.55357 5.83319 3.55357C7.03818 3.55357 8.01443 4.5472 8.01443 5.77365C8.01443 7.0001 7.03818 7.99373 5.83319 7.99373ZM7.71193 21.9987H3.94944V9.67819H7.71193V21.9987ZM23.6769 0.00144603H2.0607C1.03945 -0.0100042 0.201953 0.82332 0.189453 1.86275V23.9541C0.201953 24.9948 1.03945 25.8281 2.0607 25.8167H23.6769C24.7006 25.8294 25.5419 24.9961 25.5556 23.9541V1.86148C25.5406 0.819503 24.6994 -0.013821 23.6769 0.00017372" fill="black"/>
<path d="M28.4431 22.4795C27.4881 22.4884 26.7206 23.2848 26.7306 24.2568C26.7393 25.2288 27.5218 26.01 28.4768 25.9998C29.4318 25.9909 30.1993 25.1945 30.1893 24.2225C30.1806 23.2632 29.4181 22.4884 28.4768 22.4795H28.4431ZM28.4831 25.7975C27.6456 25.8115 26.9156 25.1334 26.9018 24.281C26.8881 23.4286 27.5556 22.7263 28.3931 22.7123C29.2306 22.6983 29.9206 23.3777 29.9343 24.2301C29.9343 24.239 29.9343 24.2466 29.9343 24.2556C29.9518 25.0889 29.3018 25.7797 28.4831 25.7975H28.4443H28.4831Z" fill="black"/>
</svg>
