<svg width="31" height="22" viewBox="0 0 31 22" fill="none" xmlns="http://www.w3.org/2000/svg">
<path d="M29.562 3.84517C29.217 2.54642 28.2007 1.52267 26.9095 1.17517C24.5707 0.545166 15.1895 0.545166 15.1895 0.545166C15.1895 0.545166 5.8082 0.545166 3.4682 1.17517C2.1782 1.52267 1.16195 2.54517 0.816953 3.84517C0.189453 6.20017 0.189453 11.1127 0.189453 11.1127C0.189453 11.1127 0.189453 16.0252 0.816953 18.3802C1.16195 19.6789 2.1782 20.7027 3.46945 21.0502C5.8082 21.6802 15.1895 21.6802 15.1895 21.6802C15.1895 21.6802 24.5707 21.6802 26.9107 21.0502C28.2007 20.7027 29.217 19.6802 29.5632 18.3802C30.1895 16.0252 30.1895 11.1127 30.1895 11.1127C30.1895 11.1127 30.1895 6.20017 29.562 3.84517ZM12.122 15.5739V6.65142L19.962 11.1127L12.122 15.5739Z" fill="black"/>
</svg>
