<svg width="25" height="24" viewBox="0 0 25 24" fill="none" xmlns="http://www.w3.org/2000/svg">
<path d="M12.1895 21C9.68945 21 7.56445 20.125 5.81445 18.375C4.06445 16.625 3.18945 14.5 3.18945 12C3.18945 9.5 4.06445 7.375 5.81445 5.625C7.56445 3.875 9.68945 3 12.1895 3C12.4228 3 12.652 3.00833 12.877 3.025C13.102 3.04167 13.3228 3.06667 13.5395 3.1C12.8561 3.58333 12.3103 4.2125 11.902 4.9875C11.4936 5.7625 11.2895 6.6 11.2895 7.5C11.2895 9 11.8145 10.275 12.8645 11.325C13.9145 12.375 15.1895 12.9 16.6895 12.9C17.6061 12.9 18.4478 12.6958 19.2145 12.2875C19.9811 11.8792 20.6061 11.3333 21.0895 10.65C21.1228 10.8667 21.1478 11.0875 21.1645 11.3125C21.1811 11.5375 21.1895 11.7667 21.1895 12C21.1895 14.5 20.3145 16.625 18.5645 18.375C16.8145 20.125 14.6895 21 12.1895 21ZM12.1895 19C13.6561 19 14.9728 18.5958 16.1395 17.7875C17.3061 16.9792 18.1561 15.925 18.6895 14.625C18.3561 14.7083 18.0228 14.775 17.6895 14.825C17.3561 14.875 17.0228 14.9 16.6895 14.9C14.6395 14.9 12.8936 14.1792 11.452 12.7375C10.0103 11.2958 9.28945 9.55 9.28945 7.5C9.28945 7.16667 9.31445 6.83333 9.36445 6.5C9.41445 6.16667 9.48112 5.83333 9.56445 5.5C8.26445 6.03333 7.21029 6.88333 6.40195 8.05C5.59362 9.21667 5.18945 10.5333 5.18945 12C5.18945 13.9333 5.87279 15.5833 7.23945 16.95C8.60612 18.3167 10.2561 19 12.1895 19Z" fill="#272727"/>
</svg>
