<svg width="25" height="24" viewBox="0 0 25 24" fill="none" xmlns="http://www.w3.org/2000/svg">
<path d="M12.1895 15C13.0228 15 13.7311 14.7083 14.3145 14.125C14.8978 13.5417 15.1895 12.8333 15.1895 12C15.1895 11.1667 14.8978 10.4583 14.3145 9.875C13.7311 9.29167 13.0228 9 12.1895 9C11.3561 9 10.6478 9.29167 10.0645 9.875C9.48112 10.4583 9.18945 11.1667 9.18945 12C9.18945 12.8333 9.48112 13.5417 10.0645 14.125C10.6478 14.7083 11.3561 15 12.1895 15ZM12.1895 17C10.8061 17 9.62695 16.5125 8.65195 15.5375C7.67695 14.5625 7.18945 13.3833 7.18945 12C7.18945 10.6167 7.67695 9.4375 8.65195 8.4625C9.62695 7.4875 10.8061 7 12.1895 7C13.5728 7 14.752 7.4875 15.727 8.4625C16.702 9.4375 17.1895 10.6167 17.1895 12C17.1895 13.3833 16.702 14.5625 15.727 15.5375C14.752 16.5125 13.5728 17 12.1895 17ZM5.18945 13H1.18945V11H5.18945V13ZM23.1895 13H19.1895V11H23.1895V13ZM11.1895 5V1H13.1895V5H11.1895ZM11.1895 23V19H13.1895V23H11.1895ZM6.58945 7.75L4.06445 5.325L5.48945 3.85L7.88945 6.35L6.58945 7.75ZM18.8895 20.15L16.4645 17.625L17.7895 16.25L20.3145 18.675L18.8895 20.15ZM16.4395 6.4L18.8645 3.875L20.3395 5.3L17.8395 7.7L16.4395 6.4ZM4.03945 18.7L6.56445 16.275L7.93945 17.6L5.51445 20.125L4.03945 18.7Z" fill="#FEFEFE"/>
</svg>
