<svg width="734" height="753" viewBox="0 0 734 753" fill="none" xmlns="http://www.w3.org/2000/svg">
<g clip-path="url(#clip0_8_36)">
<path d="M366.84 752.7C569.44 752.7 733.68 584.202 733.68 376.35C733.68 168.498 569.44 0 366.84 0C164.24 0 0 168.498 0 376.35C0 584.202 164.24 752.7 366.84 752.7Z" fill="#7C1D16"/>
<g opacity="0.67">
<path d="M733.69 376.37C733.69 169.24 564.47 1.33008 355.72 1.33008C340.81 1.33008 326.14 2.28008 311.68 3.95008C314.04 3.90008 316.38 3.75008 318.76 3.75008C507.1 3.75008 659.78 171.66 659.78 378.78C659.78 571.53 527.53 730.24 357.39 751.35C565.36 750.45 733.69 582.93 733.69 376.36V376.37Z" fill="#5D0B0D"/>
</g>
<path d="M27.3503 407.37C7.30034 386.23 9.81034 354.93 32.9503 337.81C118.29 274.65 280.55 162.26 372.08 162.26C463.61 162.26 634.76 283.54 706.45 331.64C726.43 345.04 730.81 374.1 715.91 393.68C666.91 458.06 550.02 582.33 378.68 580.58C213.29 578.89 86.2203 469.45 27.3403 407.36L27.3503 407.37Z" fill="white" stroke="#6A1A0F" stroke-width="1.03" stroke-miterlimit="10"/>
<mask id="mask0_8_36" style="mask-type:luminance" maskUnits="userSpaceOnUse" x="14" y="162" width="710" height="419">
<path d="M28.4403 407.37C8.46025 386.23 10.9603 354.93 34.0203 337.81C119.09 274.65 280.83 162.26 372.07 162.26C463.31 162.26 633.91 283.54 705.38 331.64C725.29 345.04 729.67 374.1 714.81 393.68C665.97 458.06 549.45 582.33 378.66 580.58C213.79 578.89 87.1403 469.45 28.4403 407.36V407.37Z" fill="white"/>
</mask>
<g mask="url(#mask0_8_36)">
<path d="M370.47 619.11C505.012 619.11 614.08 503.626 614.08 361.17C614.08 218.714 505.012 103.23 370.47 103.23C235.928 103.23 126.86 218.714 126.86 361.17C126.86 503.626 235.928 619.11 370.47 619.11Z" fill="#010101" stroke="#010101" stroke-width="0.4" stroke-miterlimit="10"/>
</g>
<path d="M455.239 428.581C461.534 385.949 433.273 346.462 392.115 340.384C350.958 334.307 312.49 363.94 306.195 406.573C299.899 449.205 328.16 488.692 369.318 494.77C410.475 500.848 448.943 471.214 455.239 428.581Z" fill="#F3F3F3"/>
<path opacity="0.74" d="M365 341.1C405.84 341.1 438.95 376.74 438.95 420.71C438.95 428.45 437.92 435.93 436.01 443C429.13 468.42 410.79 488.57 387.43 496.57C428.25 490.06 459.31 457.5 459.31 418.22C459.31 374.25 420.43 338.61 372.47 338.61" fill="#818181"/>
</g>
<defs>
<clipPath id="clip0_8_36">
<rect width="733.69" height="752.69" fill="white"/>
</clipPath>
</defs>
</svg>
