<svg width="215" height="29" viewBox="0 0 215 29" fill="none" xmlns="http://www.w3.org/2000/svg">
<path d="M14.9338 5.91594C12.1725 5.91594 10.1711 6.68861 8.92981 8.23394C7.71381 9.75394 7.10581 11.8439 7.10581 14.5039C7.10581 15.7959 7.25781 16.9739 7.5618 18.0379C7.86581 19.0766 8.32181 19.9759 8.92981 20.7359C9.53781 21.4959 10.2978 22.0913 11.2098 22.5219C12.1218 22.9273 13.1858 23.1299 14.4018 23.1299C15.0605 23.1299 15.6178 23.1173 16.0738 23.0919C16.5551 23.0666 16.9731 23.0159 17.3278 22.9399V13.7819H23.2558V26.8159C22.5465 27.0946 21.4065 27.3859 19.8358 27.6899C18.2651 28.0193 16.3271 28.1839 14.0218 28.1839C12.0458 28.1839 10.2471 27.8799 8.6258 27.2719C7.02981 26.6639 5.66181 25.7773 4.52181 24.6119C3.3818 23.4466 2.49514 22.0153 1.8618 20.3179C1.2538 18.6206 0.949805 16.6826 0.949805 14.5039C0.949805 12.2999 1.2918 10.3493 1.9758 8.65194C2.6598 6.95461 3.59714 5.52327 4.7878 4.35794C5.97847 3.16727 7.37181 2.26794 8.9678 1.65994C10.5891 1.05194 12.3118 0.747939 14.1358 0.747939C15.3771 0.747939 16.4918 0.836607 17.4798 1.01394C18.4931 1.16594 19.3545 1.35594 20.0638 1.58394C20.7985 1.78661 21.3938 2.00194 21.8498 2.22994C22.3311 2.45794 22.6731 2.63527 22.8758 2.76194L21.1658 7.51194C20.3551 7.08127 19.4178 6.71394 18.3538 6.40994C17.3151 6.08061 16.1751 5.91594 14.9338 5.91594ZM39.0694 28.2219C37.2201 28.2219 35.6241 27.9686 34.2814 27.4619C32.9388 26.9299 31.8241 26.2079 30.9374 25.2959C30.0761 24.3586 29.4301 23.2566 28.9994 21.9899C28.5941 20.6979 28.3914 19.2793 28.3914 17.7339V1.35594H34.3194V17.2399C34.3194 18.3039 34.4334 19.2159 34.6614 19.9759C34.9148 20.7106 35.2441 21.3186 35.6494 21.7999C36.0801 22.2559 36.5868 22.5853 37.1694 22.7879C37.7774 22.9906 38.4361 23.0919 39.1454 23.0919C40.5894 23.0919 41.7548 22.6486 42.6414 21.7619C43.5534 20.8753 44.0094 19.3679 44.0094 17.2399V1.35594H49.9374V17.7339C49.9374 19.2793 49.7221 20.6979 49.2914 21.9899C48.8608 23.2819 48.2021 24.3966 47.3154 25.3339C46.4288 26.2459 45.3014 26.9553 43.9334 27.4619C42.5654 27.9686 40.9441 28.2219 39.0694 28.2219ZM72.5284 27.6899C72.2498 26.7779 71.9331 25.8406 71.5784 24.8779C71.2491 23.9153 70.9198 22.9526 70.5904 21.9899H60.3304C60.0011 22.9526 59.6591 23.9153 59.3044 24.8779C58.9751 25.8406 58.6711 26.7779 58.3924 27.6899H52.2364C53.2244 24.8526 54.1618 22.2306 55.0484 19.8239C55.9351 17.4173 56.7964 15.1499 57.6324 13.0219C58.4938 10.8939 59.3298 8.87994 60.1404 6.97994C60.9764 5.05461 61.8378 3.17994 62.7244 1.35594H68.3864C69.2478 3.17994 70.0964 5.05461 70.9324 6.97994C71.7684 8.87994 72.6044 10.8939 73.4404 13.0219C74.3018 15.1499 75.1758 17.4173 76.0624 19.8239C76.9491 22.2306 77.8864 24.8526 78.8744 27.6899H72.5284ZM65.4224 7.32194C65.2958 7.70194 65.1058 8.22127 64.8524 8.87994C64.5991 9.53861 64.3078 10.2986 63.9784 11.1599C63.6491 12.0213 63.2818 12.9713 62.8764 14.0099C62.4964 15.0486 62.1038 16.1379 61.6984 17.2779H69.1844C68.7791 16.1379 68.3864 15.0486 68.0064 14.0099C67.6264 12.9713 67.2591 12.0213 66.9044 11.1599C66.5751 10.2986 66.2838 9.53861 66.0304 8.87994C65.7771 8.22127 65.5744 7.70194 65.4224 7.32194ZM89.9972 1.05194C93.9492 1.05194 96.9765 1.76127 99.0792 3.17994C101.182 4.57327 102.233 6.75194 102.233 9.71594C102.233 11.5653 101.802 13.0726 100.941 14.2379C100.105 15.3779 98.8892 16.2773 97.2932 16.9359C97.8252 17.5946 98.3825 18.3546 98.9652 19.2159C99.5478 20.0519 100.118 20.9386 100.675 21.8759C101.258 22.7879 101.815 23.7506 102.347 24.7639C102.879 25.7519 103.373 26.7273 103.829 27.6899H97.1792C96.6978 26.8286 96.2038 25.9546 95.6972 25.0679C95.2158 24.1813 94.7092 23.3199 94.1772 22.4839C93.6705 21.6479 93.1638 20.8626 92.6572 20.1279C92.1505 19.3679 91.6438 18.6839 91.1372 18.0759H88.2112V27.6899H82.2832V1.73594C83.5752 1.48261 84.9052 1.30527 86.2732 1.20394C87.6665 1.10261 88.9078 1.05194 89.9972 1.05194ZM90.3392 6.10594C89.9085 6.10594 89.5158 6.11861 89.1612 6.14394C88.8318 6.16927 88.5152 6.19461 88.2112 6.21994V13.3639H89.8832C92.1125 13.3639 93.7085 13.0853 94.6712 12.5279C95.6338 11.9706 96.1152 11.0206 96.1152 9.67794C96.1152 8.38594 95.6212 7.47394 94.6332 6.94194C93.6705 6.38461 92.2392 6.10594 90.3392 6.10594ZM117.63 28.2219C115.781 28.2219 114.185 27.9686 112.842 27.4619C111.499 26.9299 110.385 26.2079 109.498 25.2959C108.637 24.3586 107.991 23.2566 107.56 21.9899C107.155 20.6979 106.952 19.2793 106.952 17.7339V1.35594H112.88V17.2399C112.88 18.3039 112.994 19.2159 113.222 19.9759C113.475 20.7106 113.805 21.3186 114.21 21.7999C114.641 22.2559 115.147 22.5853 115.73 22.7879C116.338 22.9906 116.997 23.0919 117.706 23.0919C119.15 23.0919 120.315 22.6486 121.202 21.7619C122.114 20.8753 122.57 19.3679 122.57 17.2399V1.35594H128.498V17.7339C128.498 19.2793 128.283 20.6979 127.852 21.9899C127.421 23.2819 126.763 24.3966 125.876 25.3339C124.989 26.2459 123.862 26.9553 122.494 27.4619C121.126 27.9686 119.505 28.2219 117.63 28.2219ZM146.207 28.2219C141.926 28.2219 138.658 27.0313 136.403 24.6499C134.174 22.2686 133.059 18.8866 133.059 14.5039C133.059 12.3253 133.401 10.3873 134.085 8.68994C134.769 6.96727 135.707 5.52327 136.897 4.35794C138.088 3.16727 139.507 2.26794 141.153 1.65994C142.8 1.05194 144.586 0.747939 146.511 0.747939C147.626 0.747939 148.639 0.836607 149.551 1.01394C150.463 1.16594 151.261 1.35594 151.945 1.58394C152.629 1.78661 153.199 2.00194 153.655 2.22994C154.111 2.45794 154.441 2.63527 154.643 2.76194L152.933 7.54994C152.123 7.11927 151.173 6.75194 150.083 6.44794C149.019 6.14394 147.803 5.99194 146.435 5.99194C145.523 5.99194 144.624 6.14394 143.737 6.44794C142.876 6.75194 142.103 7.24594 141.419 7.92994C140.761 8.58861 140.229 9.44994 139.823 10.5139C139.418 11.5779 139.215 12.8699 139.215 14.3899C139.215 15.6059 139.342 16.7459 139.595 17.8099C139.874 18.8486 140.305 19.7479 140.887 20.5079C141.495 21.2679 142.281 21.8759 143.243 22.3319C144.206 22.7626 145.371 22.9779 146.739 22.9779C147.601 22.9779 148.373 22.9273 149.057 22.8259C149.741 22.7246 150.349 22.6106 150.881 22.4839C151.413 22.3319 151.882 22.1673 152.287 21.9899C152.693 21.8126 153.06 21.6479 153.389 21.4959L155.023 26.2459C154.187 26.7526 153.009 27.2086 151.489 27.6139C149.969 28.0193 148.209 28.2219 146.207 28.2219ZM169.138 28.2219C167.288 28.2219 165.692 27.9686 164.35 27.4619C163.007 26.9299 161.892 26.2079 161.006 25.2959C160.144 24.3586 159.498 23.2566 159.068 21.9899C158.662 20.6979 158.46 19.2793 158.46 17.7339V1.35594H164.388V17.2399C164.388 18.3039 164.502 19.2159 164.73 19.9759C164.983 20.7106 165.312 21.3186 165.718 21.7999C166.148 22.2559 166.655 22.5853 167.238 22.7879C167.846 22.9906 168.504 23.0919 169.214 23.0919C170.658 23.0919 171.823 22.6486 172.71 21.7619C173.622 20.8753 174.078 19.3679 174.078 17.2399V1.35594H180.006V17.7339C180.006 19.2793 179.79 20.6979 179.36 21.9899C178.929 23.2819 178.27 24.3966 177.384 25.3339C176.497 26.2459 175.37 26.9553 174.002 27.4619C172.634 27.9686 171.012 28.2219 169.138 28.2219ZM192.699 1.35594C193.155 2.19194 193.674 3.23061 194.257 4.47194C194.865 5.68794 195.486 7.01794 196.119 8.46194C196.778 9.88061 197.424 11.3373 198.057 12.8319C198.69 14.3266 199.286 15.7326 199.843 17.0499C200.4 15.7326 200.996 14.3266 201.629 12.8319C202.262 11.3373 202.896 9.88061 203.529 8.46194C204.188 7.01794 204.808 5.68794 205.391 4.47194C205.999 3.23061 206.531 2.19194 206.987 1.35594H212.383C212.636 3.10394 212.864 5.06727 213.067 7.24594C213.295 9.39927 213.485 11.6539 213.637 14.0099C213.814 16.3406 213.966 18.6839 214.093 21.0399C214.245 23.3959 214.372 25.6126 214.473 27.6899H208.697C208.621 25.1313 208.52 22.3446 208.393 19.3299C208.266 16.3153 208.076 13.2753 207.823 10.2099C207.367 11.2739 206.86 12.4519 206.303 13.7439C205.746 15.0359 205.188 16.3279 204.631 17.6199C204.099 18.9119 203.58 20.1533 203.073 21.3439C202.566 22.5093 202.136 23.5099 201.781 24.3459H197.639C197.284 23.5099 196.854 22.5093 196.347 21.3439C195.84 20.1533 195.308 18.9119 194.751 17.6199C194.219 16.3279 193.674 15.0359 193.117 13.7439C192.56 12.4519 192.053 11.2739 191.597 10.2099C191.344 13.2753 191.154 16.3153 191.027 19.3299C190.9 22.3446 190.799 25.1313 190.723 27.6899H184.947C185.048 25.6126 185.162 23.3959 185.289 21.0399C185.441 18.6839 185.593 16.3406 185.745 14.0099C185.922 11.6539 186.112 9.39927 186.315 7.24594C186.543 5.06727 186.784 3.10394 187.037 1.35594H192.699Z" fill="white"/>
</svg>
