<svg width="215" height="28" viewBox="0 0 215 28" fill="none" xmlns="http://www.w3.org/2000/svg">
<path d="M14.9338 5.41594C12.1725 5.41594 10.1711 6.18861 8.92981 7.73394C7.71381 9.25394 7.10581 11.3439 7.10581 14.0039C7.10581 15.2959 7.25781 16.4739 7.5618 17.5379C7.86581 18.5766 8.32181 19.4759 8.92981 20.2359C9.53781 20.9959 10.2978 21.5913 11.2098 22.0219C12.1218 22.4273 13.1858 22.6299 14.4018 22.6299C15.0605 22.6299 15.6178 22.6173 16.0738 22.5919C16.5551 22.5666 16.9731 22.5159 17.3278 22.4399V13.2819H23.2558V26.3159C22.5465 26.5946 21.4065 26.8859 19.8358 27.1899C18.2651 27.5193 16.3271 27.6839 14.0218 27.6839C12.0458 27.6839 10.2471 27.3799 8.6258 26.7719C7.02981 26.1639 5.66181 25.2773 4.52181 24.1119C3.3818 22.9466 2.49514 21.5153 1.8618 19.8179C1.2538 18.1206 0.949805 16.1826 0.949805 14.0039C0.949805 11.7999 1.2918 9.84927 1.9758 8.15194C2.6598 6.45461 3.59714 5.02327 4.7878 3.85794C5.97847 2.66727 7.37181 1.76794 8.9678 1.15994C10.5891 0.551939 12.3118 0.247939 14.1358 0.247939C15.3771 0.247939 16.4918 0.336607 17.4798 0.513941C18.4931 0.66594 19.3545 0.85594 20.0638 1.08394C20.7985 1.28661 21.3938 1.50194 21.8498 1.72994C22.3311 1.95794 22.6731 2.13527 22.8758 2.26194L21.1658 7.01194C20.3551 6.58127 19.4178 6.21394 18.3538 5.90994C17.3151 5.58061 16.1751 5.41594 14.9338 5.41594ZM39.0694 27.7219C37.2201 27.7219 35.6241 27.4686 34.2814 26.9619C32.9388 26.4299 31.8241 25.7079 30.9374 24.7959C30.0761 23.8586 29.4301 22.7566 28.9994 21.4899C28.5941 20.1979 28.3914 18.7793 28.3914 17.2339V0.855941H34.3194V16.7399C34.3194 17.8039 34.4334 18.7159 34.6614 19.4759C34.9148 20.2106 35.2441 20.8186 35.6494 21.2999C36.0801 21.7559 36.5868 22.0853 37.1694 22.2879C37.7774 22.4906 38.4361 22.5919 39.1454 22.5919C40.5894 22.5919 41.7548 22.1486 42.6414 21.2619C43.5534 20.3753 44.0094 18.8679 44.0094 16.7399V0.855941H49.9374V17.2339C49.9374 18.7793 49.7221 20.1979 49.2914 21.4899C48.8608 22.7819 48.2021 23.8966 47.3154 24.8339C46.4288 25.7459 45.3014 26.4553 43.9334 26.9619C42.5654 27.4686 40.9441 27.7219 39.0694 27.7219ZM72.5284 27.1899C72.2498 26.2779 71.9331 25.3406 71.5784 24.3779C71.2491 23.4153 70.9198 22.4526 70.5904 21.4899H60.3304C60.0011 22.4526 59.6591 23.4153 59.3044 24.3779C58.9751 25.3406 58.6711 26.2779 58.3924 27.1899H52.2364C53.2244 24.3526 54.1618 21.7306 55.0484 19.3239C55.9351 16.9173 56.7964 14.6499 57.6324 12.5219C58.4938 10.3939 59.3298 8.37994 60.1404 6.47994C60.9764 4.55461 61.8378 2.67994 62.7244 0.855941H68.3864C69.2478 2.67994 70.0964 4.55461 70.9324 6.47994C71.7684 8.37994 72.6044 10.3939 73.4404 12.5219C74.3018 14.6499 75.1758 16.9173 76.0624 19.3239C76.9491 21.7306 77.8864 24.3526 78.8744 27.1899H72.5284ZM65.4224 6.82194C65.2958 7.20194 65.1058 7.72127 64.8524 8.37994C64.5991 9.03861 64.3078 9.79861 63.9784 10.6599C63.6491 11.5213 63.2818 12.4713 62.8764 13.5099C62.4964 14.5486 62.1038 15.6379 61.6984 16.7779H69.1844C68.7791 15.6379 68.3864 14.5486 68.0064 13.5099C67.6264 12.4713 67.2591 11.5213 66.9044 10.6599C66.5751 9.79861 66.2838 9.03861 66.0304 8.37994C65.7771 7.72127 65.5744 7.20194 65.4224 6.82194ZM89.9972 0.55194C93.9492 0.55194 96.9765 1.26127 99.0792 2.67994C101.182 4.07327 102.233 6.25194 102.233 9.21594C102.233 11.0653 101.802 12.5726 100.941 13.7379C100.105 14.8779 98.8892 15.7773 97.2932 16.4359C97.8252 17.0946 98.3825 17.8546 98.9652 18.7159C99.5478 19.5519 100.118 20.4386 100.675 21.3759C101.258 22.2879 101.815 23.2506 102.347 24.2639C102.879 25.2519 103.373 26.2273 103.829 27.1899H97.1792C96.6978 26.3286 96.2038 25.4546 95.6972 24.5679C95.2158 23.6813 94.7092 22.8199 94.1772 21.9839C93.6705 21.1479 93.1638 20.3626 92.6572 19.6279C92.1505 18.8679 91.6438 18.1839 91.1372 17.5759H88.2112V27.1899H82.2832V1.23594C83.5752 0.982607 84.9052 0.805274 86.2732 0.70394C87.6665 0.602607 88.9078 0.55194 89.9972 0.55194ZM90.3392 5.60594C89.9085 5.60594 89.5158 5.61861 89.1612 5.64394C88.8318 5.66927 88.5152 5.69461 88.2112 5.71994V12.8639H89.8832C92.1125 12.8639 93.7085 12.5853 94.6712 12.0279C95.6338 11.4706 96.1152 10.5206 96.1152 9.17794C96.1152 7.88594 95.6212 6.97394 94.6332 6.44194C93.6705 5.88461 92.2392 5.60594 90.3392 5.60594ZM117.63 27.7219C115.781 27.7219 114.185 27.4686 112.842 26.9619C111.499 26.4299 110.385 25.7079 109.498 24.7959C108.637 23.8586 107.991 22.7566 107.56 21.4899C107.155 20.1979 106.952 18.7793 106.952 17.2339V0.855941H112.88V16.7399C112.88 17.8039 112.994 18.7159 113.222 19.4759C113.475 20.2106 113.805 20.8186 114.21 21.2999C114.641 21.7559 115.147 22.0853 115.73 22.2879C116.338 22.4906 116.997 22.5919 117.706 22.5919C119.15 22.5919 120.315 22.1486 121.202 21.2619C122.114 20.3753 122.57 18.8679 122.57 16.7399V0.855941H128.498V17.2339C128.498 18.7793 128.283 20.1979 127.852 21.4899C127.421 22.7819 126.763 23.8966 125.876 24.8339C124.989 25.7459 123.862 26.4553 122.494 26.9619C121.126 27.4686 119.505 27.7219 117.63 27.7219ZM146.207 27.7219C141.926 27.7219 138.658 26.5313 136.403 24.1499C134.174 21.7686 133.059 18.3866 133.059 14.0039C133.059 11.8253 133.401 9.88727 134.085 8.18994C134.769 6.46727 135.707 5.02327 136.897 3.85794C138.088 2.66727 139.507 1.76794 141.153 1.15994C142.8 0.551939 144.586 0.247939 146.511 0.247939C147.626 0.247939 148.639 0.336607 149.551 0.513941C150.463 0.66594 151.261 0.85594 151.945 1.08394C152.629 1.28661 153.199 1.50194 153.655 1.72994C154.111 1.95794 154.441 2.13527 154.643 2.26194L152.933 7.04994C152.123 6.61927 151.173 6.25194 150.083 5.94794C149.019 5.64394 147.803 5.49194 146.435 5.49194C145.523 5.49194 144.624 5.64394 143.737 5.94794C142.876 6.25194 142.103 6.74594 141.419 7.42994C140.761 8.08861 140.229 8.94994 139.823 10.0139C139.418 11.0779 139.215 12.3699 139.215 13.8899C139.215 15.1059 139.342 16.2459 139.595 17.3099C139.874 18.3486 140.305 19.2479 140.887 20.0079C141.495 20.7679 142.281 21.3759 143.243 21.8319C144.206 22.2626 145.371 22.4779 146.739 22.4779C147.601 22.4779 148.373 22.4273 149.057 22.3259C149.741 22.2246 150.349 22.1106 150.881 21.9839C151.413 21.8319 151.882 21.6673 152.287 21.4899C152.693 21.3126 153.06 21.1479 153.389 20.9959L155.023 25.7459C154.187 26.2526 153.009 26.7086 151.489 27.1139C149.969 27.5193 148.209 27.7219 146.207 27.7219ZM169.138 27.7219C167.288 27.7219 165.692 27.4686 164.35 26.9619C163.007 26.4299 161.892 25.7079 161.006 24.7959C160.144 23.8586 159.498 22.7566 159.068 21.4899C158.662 20.1979 158.46 18.7793 158.46 17.2339V0.855941H164.388V16.7399C164.388 17.8039 164.502 18.7159 164.73 19.4759C164.983 20.2106 165.312 20.8186 165.718 21.2999C166.148 21.7559 166.655 22.0853 167.238 22.2879C167.846 22.4906 168.504 22.5919 169.214 22.5919C170.658 22.5919 171.823 22.1486 172.71 21.2619C173.622 20.3753 174.078 18.8679 174.078 16.7399V0.855941H180.006V17.2339C180.006 18.7793 179.79 20.1979 179.36 21.4899C178.929 22.7819 178.27 23.8966 177.384 24.8339C176.497 25.7459 175.37 26.4553 174.002 26.9619C172.634 27.4686 171.012 27.7219 169.138 27.7219ZM192.699 0.855941C193.155 1.69194 193.674 2.73061 194.257 3.97194C194.865 5.18794 195.486 6.51794 196.119 7.96194C196.778 9.38061 197.424 10.8373 198.057 12.3319C198.69 13.8266 199.286 15.2326 199.843 16.5499C200.4 15.2326 200.996 13.8266 201.629 12.3319C202.262 10.8373 202.896 9.38061 203.529 7.96194C204.188 6.51794 204.808 5.18794 205.391 3.97194C205.999 2.73061 206.531 1.69194 206.987 0.855941H212.383C212.636 2.60394 212.864 4.56727 213.067 6.74594C213.295 8.89927 213.485 11.1539 213.637 13.5099C213.814 15.8406 213.966 18.1839 214.093 20.5399C214.245 22.8959 214.372 25.1126 214.473 27.1899H208.697C208.621 24.6313 208.52 21.8446 208.393 18.8299C208.266 15.8153 208.076 12.7753 207.823 9.70994C207.367 10.7739 206.86 11.9519 206.303 13.2439C205.746 14.5359 205.188 15.8279 204.631 17.1199C204.099 18.4119 203.58 19.6533 203.073 20.8439C202.566 22.0093 202.136 23.0099 201.781 23.8459H197.639C197.284 23.0099 196.854 22.0093 196.347 20.8439C195.84 19.6533 195.308 18.4119 194.751 17.1199C194.219 15.8279 193.674 14.5359 193.117 13.2439C192.56 11.9519 192.053 10.7739 191.597 9.70994C191.344 12.7753 191.154 15.8153 191.027 18.8299C190.9 21.8446 190.799 24.6313 190.723 27.1899H184.947C185.048 25.1126 185.162 22.8959 185.289 20.5399C185.441 18.1839 185.593 15.8406 185.745 13.5099C185.922 11.1539 186.112 8.89927 186.315 6.74594C186.543 4.56727 186.784 2.60394 187.037 0.855941H192.699Z" fill="#1F1F1F"/>
</svg>
