<svg width="1200" height="196" viewBox="0 0 1200 196" fill="none" xmlns="http://www.w3.org/2000/svg">
<path d="M127.727 175.451C99.6982 194.838 51.8988 196.133 23.6327 162.009C-26.6865 104.127 8.47124 0 80.8434 0C104.285 0 126.801 10.3292 143.115 32.5617L113.471 65.6321C96.2309 36.4246 43.3813 41.5952 43.3813 95.3481C43.3813 134.63 75.0932 151.426 104.738 135.914C102.444 129.193 100.603 122.218 99.4506 115.244H74.8671V76.2155H161.496L161.722 115.244H135.071C135.071 126.093 150.007 150.13 161.722 150.13V189.146C149.317 189.146 137.139 184.242 127.717 175.451H127.727Z" fill="#FFF7E5"/>
<path d="M170.336 128.176V8.53711H212.385V128.176C212.385 141.86 218.361 147.818 230.766 147.818H231.918C244.56 147.818 250.536 141.618 250.536 128.176V8.53711H292.812V128.176C292.812 149.876 288.677 194.063 232.608 194.063H229.851C175.16 194.063 170.336 149.876 170.336 128.176Z" fill="#FFF7E5"/>
<path d="M346.568 8.53711H391.147L448.595 189.158H404.015L398.728 172.617C397.124 167.967 395.508 164.092 392.526 160.992C386.549 154.792 378.279 152.467 369.547 152.201H367.705C358.972 152.467 350.466 154.538 344.5 160.217C341.517 163.317 339.676 167.192 338.072 171.842L332.321 189.158H287.979L346.568 8.53711ZM382.641 119.119L368.631 70.0157L354.385 119.119H382.651H382.641Z" fill="#FFF7E5"/>
<path d="M504.298 154.005V189.146H462.475V8.5249H515.324C539.219 8.5249 579.427 13.1749 579.427 67.957C579.427 122.739 544.506 128.164 531.638 129.714C544.053 159.684 562.887 159.951 564.265 131.785H598.734C598.734 141.339 596.892 150.651 593.673 159.43C586.092 179.834 570.694 191.459 551.623 191.459C534.384 191.459 518.533 178.805 504.287 153.993L504.298 154.005ZM518.081 91.4731H519.459C533.479 91.4731 539.908 84.2439 539.908 69.7734C539.908 55.3029 533.242 47.553 519.685 47.553H518.307C504.298 47.553 497.858 54.7822 497.858 69.2648C497.858 83.7475 504.524 91.4853 518.081 91.4853V91.4731Z" fill="#FFF7E5"/>
<path d="M609.533 130.114V10.4746H651.572V130.114C651.572 143.797 657.559 149.755 669.964 149.755H671.116C683.747 149.755 689.723 143.555 689.723 130.114V10.4746H732.009V130.114C732.009 151.814 727.863 196 671.805 196H669.048C614.368 196 609.544 151.814 609.544 130.114H609.533Z" fill="#FFF7E5"/>
<path d="M746.115 98.4479C746.115 34.3658 801.032 -17.825 864.219 13.441V65.6439C832.744 37.9985 789.543 53.4863 789.543 98.46C789.543 143.434 832.744 158.413 864.219 132.826V183.733C801.032 216.295 746.115 159.963 746.115 98.46V98.4479Z" fill="#FFF7E5"/>
<path d="M885.002 128.176V8.53711H927.04V128.176C927.04 141.86 933.027 147.818 945.432 147.818H946.584C959.215 147.818 965.192 141.618 965.192 128.176V8.53711H1007.48V128.176C1007.48 149.876 1003.33 194.063 947.274 194.063H944.517C889.837 194.063 885.013 149.876 885.013 128.176H885.002Z" fill="#FFF7E5"/>
<path d="M1026.29 7.66832L1076.62 7.396C1085.8 40.4211 1097.99 72.3816 1113.15 102.225C1125.79 76.8625 1139.58 44.1221 1149.45 7.396L1200 7.66832V192.302H1157.03V100.109C1138.88 141.316 1113.15 181.731 1113.15 181.731C1113.15 181.731 1087.42 141.316 1069.26 100.109V192.302H1026.3V7.66832H1026.29Z" fill="#FFF7E5"/>
</svg>
